<?xml version="1.0" encoding="utf-8"?>
<!-- Generator: Adobe Illustrator 22.0.1, SVG Export Plug-In . SVG Version: 6.00 Build 0)  -->
<svg version="1.1" xmlns="http://www.w3.org/2000/svg" xmlns:xlink="http://www.w3.org/1999/xlink" x="0px" y="0px"
	 viewBox="0 0 20 20" style="enable-background:new 0 0 20 20;" xml:space="preserve">
<style type="text/css">
	.st0{fill:#F7B148;}
</style>
<g id="Layer_1">
	<g>
		<circle class="st0" cx="10" cy="10" r="3.5"/>
		<path class="st0" d="M10,19.4c-0.2,0-0.4-0.2-0.4-0.4v-4.2c0-0.2,0.2-0.4,0.4-0.4s0.4,0.2,0.4,0.4V19C10.4,19.2,10.2,19.4,10,19.4
			z"/>
		<path class="st0" d="M10,5.7c-0.2,0-0.4-0.2-0.4-0.4V1c0-0.2,0.2-0.4,0.4-0.4s0.4,0.2,0.4,0.4v4.2C10.4,5.5,10.2,5.7,10,5.7z"/>
		<path class="st0" d="M19,10.4h-4.2c-0.2,0-0.4-0.2-0.4-0.4s0.2-0.4,0.4-0.4H19c0.2,0,0.4,0.2,0.4,0.4S19.2,10.4,19,10.4z"/>
		<path class="st0" d="M5.2,10.4H1c-0.2,0-0.4-0.2-0.4-0.4S0.8,9.6,1,9.6h4.2c0.2,0,0.4,0.2,0.4,0.4S5.5,10.4,5.2,10.4z"/>
		<path class="st0" d="M13.4,7.1c-0.1,0-0.2,0-0.3-0.1c-0.2-0.2-0.2-0.4,0-0.6l3-3c0.2-0.2,0.4-0.2,0.6,0c0.2,0.2,0.2,0.4,0,0.6
			l-3,3C13.6,7,13.5,7.1,13.4,7.1z"/>
		<path class="st0" d="M3.7,16.8c-0.1,0-0.2,0-0.3-0.1c-0.2-0.2-0.2-0.4,0-0.6l3-3c0.2-0.2,0.4-0.2,0.6,0c0.2,0.2,0.2,0.4,0,0.6
			l-3,3C3.9,16.7,3.8,16.8,3.7,16.8z"/>
		<path class="st0" d="M6.6,7.1c-0.1,0-0.2,0-0.3-0.1l-3-3c-0.2-0.2-0.2-0.4,0-0.6c0.2-0.2,0.4-0.2,0.6,0l3,3c0.2,0.2,0.2,0.4,0,0.6
			C6.8,7,6.7,7.1,6.6,7.1z"/>
		<path class="st0" d="M16.3,16.8c-0.1,0-0.2,0-0.3-0.1l-3-3c-0.2-0.2-0.2-0.4,0-0.6c0.2-0.2,0.4-0.2,0.6,0l3,3
			c0.2,0.2,0.2,0.4,0,0.6C16.6,16.7,16.5,16.8,16.3,16.8z"/>
		<path class="st0" d="M12.4,16.2c-0.2,0-0.3-0.1-0.4-0.3l-0.6-1.4c-0.1-0.2,0-0.5,0.2-0.6c0.2-0.1,0.5,0,0.6,0.2l0.6,1.4
			c0.1,0.2,0,0.5-0.2,0.6C12.6,16.2,12.5,16.2,12.4,16.2z"/>
		<path class="st0" d="M8.2,6.1C8,6.1,7.8,6,7.8,5.8L7.2,4.4c-0.1-0.2,0-0.5,0.2-0.6C7.6,3.7,7.9,3.8,8,4l0.6,1.4
			c0.1,0.2,0,0.5-0.2,0.6C8.3,6,8.2,6.1,8.2,6.1z"/>
		<path class="st0" d="M14.4,8.6c-0.2,0-0.3-0.1-0.4-0.3c-0.1-0.2,0-0.5,0.2-0.6l1.4-0.6c0.2-0.1,0.5,0,0.6,0.2
			c0.1,0.2,0,0.5-0.2,0.6l-1.4,0.6C14.5,8.6,14.5,8.6,14.4,8.6z"/>
		<path class="st0" d="M4.2,12.9c-0.2,0-0.3-0.1-0.4-0.3c-0.1-0.2,0-0.5,0.2-0.6l1.4-0.6c0.2-0.1,0.5,0,0.6,0.2
			c0.1,0.2,0,0.5-0.2,0.6l-1.4,0.6C4.3,12.9,4.3,12.9,4.2,12.9z"/>
		<path class="st0" d="M11.8,6c-0.1,0-0.1,0-0.2,0c-0.2-0.1-0.3-0.3-0.2-0.6L12,4c0.1-0.2,0.3-0.3,0.6-0.2c0.2,0.1,0.3,0.3,0.2,0.6
			l-0.6,1.4C12.1,5.9,12,6,11.8,6z"/>
		<path class="st0" d="M7.6,16.3c-0.1,0-0.1,0-0.2,0c-0.2-0.1-0.3-0.3-0.2-0.6l0.6-1.4C7.9,14,8.1,13.9,8.4,14
			c0.2,0.1,0.3,0.3,0.2,0.6L8,16C8,16.2,7.8,16.3,7.6,16.3z"/>
		<path class="st0" d="M5.6,8.6c-0.1,0-0.1,0-0.2,0L4,8C3.8,7.9,3.7,7.7,3.8,7.5c0.1-0.2,0.3-0.3,0.6-0.2l1.4,0.6
			C6,7.9,6.1,8.1,6,8.4C5.9,8.5,5.7,8.6,5.6,8.6z"/>
		<path class="st0" d="M15.8,12.8c-0.1,0-0.1,0-0.2,0l-1.4-0.6c-0.2-0.1-0.3-0.3-0.2-0.6c0.1-0.2,0.3-0.3,0.6-0.2L16,12
			c0.2,0.1,0.3,0.3,0.2,0.6C16.2,12.7,16,12.8,15.8,12.8z"/>
	</g>
</g>
<g id="Layer_2">
</g>
</svg>
