<?xml version="1.0" encoding="utf-8"?>
<svg version="1.1" xmlns="http://www.w3.org/2000/svg" xmlns:xlink="http://www.w3.org/1999/xlink" x="0px" y="0px"
	 viewBox="0 0 20 20" style="enable-background:new 0 0 20 20;" xml:space="preserve">
<style type="text/css">
	.st0{stroke:#7A7A7A;stroke-linecap:round;stroke-miterlimit:10;}
	.st1{clip-path:url(#SVGID_2_);}
</style>
<path class="st0" d="M5,14.3"/>
<path d="M15.2,17H7c-1.2,0-2.1-0.9-2.1-2.1c0-0.8,0.5-1.6,1.2-1.9c0.1,0,0.3-0.1,0.3-0.4c0-2.1,2-3.8,4.5-3.8c2.5,0,4.5,1.7,4.5,3.8
	c0,0.1,0.1,0.2,0.1,0.3c1,0.1,1.8,1,1.8,2.1C17.3,16.1,16.3,17,15.2,17z M10.9,9.2c-2.2,0-4,1.5-4,3.3c0,0.5-0.4,0.8-0.6,0.9
	c-0.5,0.3-0.9,0.8-0.9,1.4c0,0.9,0.7,1.6,1.6,1.6h8.1c0.9,0,1.6-0.7,1.6-1.6c0-0.8-0.6-1.5-1.4-1.6c-0.3,0-0.5-0.5-0.5-0.7
	C14.9,10.7,13.1,9.2,10.9,9.2z"/>
<g>
	<defs>
		<polygon id="SVGID_1_" points="20,20 18.2,20 16,10.8 5.7,10.5 4.7,20 0,20 0,0 20,0 		"/>
	</defs>
	<clipPath id="SVGID_2_">
		<use xlink:href="#SVGID_1_"  style="overflow:visible;"/>
	</clipPath>
	<path class="st1" d="M3.1,14c-1.3,0-2.3-1.3-2.3-2.8c0-1.1,0.5-2.1,1.3-2.5c0.1,0,0.4-0.2,0.4-0.7c0-2.9,2.3-5.2,5-5.2
		c2.2,0,4.1,1.5,4.8,3.8c0,0.1,0.4,0.3,0.9,0.3c1.3,0,2.5,0.7,3.1,1.8c0.1,0.1,0.3,0.3,0.8,0.3c1.4,0,2.5,1.1,2.5,2.5
		c0,1.4-1.1,2.6-2.5,2.6l-4.8,0H3.1z M7.5,3.3C5,3.3,2.9,5.4,2.9,8c0,0.9-0.6,1.1-0.7,1.1c-0.6,0.4-1,1.2-1,2.1
		c0,1.3,0.8,2.3,1.8,2.3l14,0c1.1,0,2-1,2-2.1c0-1.1-0.9-2-2-2c-0.6,0-1-0.2-1.2-0.5c-0.5-0.9-1.6-1.5-2.7-1.5
		c-0.6,0-1.2-0.3-1.3-0.7C11.2,4.6,9.4,3.3,7.5,3.3z"/>
</g>
</svg>
