<?xml version="1.0" encoding="utf-8"?>
<!-- Generator: Adobe Illustrator 22.0.1, SVG Export Plug-In . SVG Version: 6.00 Build 0)  -->
<svg version="1.1" xmlns="http://www.w3.org/2000/svg" xmlns:xlink="http://www.w3.org/1999/xlink" x="0px" y="0px"
	 viewBox="0 0 20 20" style="enable-background:new 0 0 20 20;" xml:space="preserve">
<style type="text/css">
	.st0{fill:#FFFFFF;}
	.st1{fill:#7A7A7A;}
	.st2{clip-path:url(#SVGID_2_);fill:#7A7A7A;}
</style>
<g id="Layer_2">
	<path class="st0" d="M5.6,3.8C4.8,4.3,3.4,5.5,3.1,6.2S2.6,8,2.5,8.4C2.4,8.9,2.6,9,1.9,9.6c-0.7,0.6-1.3,2.3-1,3s1.7,1.9,2,1.9
		s2.5,0,2.5,0s-0.3,1,0,1.5c0.3,0.4,0.7,1.5,1.5,1.5s8.7-0.1,8.7-0.1s1-0.2,1.3-0.8c0.3-0.6,0.3-1.3,0.3-1.5
		c-0.1-0.2-0.3-0.6-0.3-0.6s1.2-0.3,1.7-0.5s0.9-1,0.8-1.9c0-0.9-0.6-1.9-1-2s-0.7-0.3-1.1-0.3s-0.8-0.1-1.1-0.3
		c-0.3-0.3-1-1.3-1.5-1.4c-0.5-0.1-1.4-0.2-2-0.5c-0.6-0.2-0.9-0.9-1.2-1.4c-0.3-0.5-1.7-2.5-3.1-2.5C7.1,3.5,5.6,3.8,5.6,3.8z"/>
</g>
<g id="Layer_1">
	<path class="st1" d="M15.2,17.6H7c-1.2,0-2.1-1-2.1-2.1c0-0.8,0.5-1.6,1.2-1.9c0.1,0,0.3-0.1,0.3-0.4c0-2.1,2-3.9,4.5-3.9
		c2.5,0,4.5,1.7,4.5,3.9c0,0.1,0.1,0.2,0.1,0.3c1,0.1,1.8,1,1.8,2.1C17.3,16.6,16.4,17.6,15.2,17.6z M10.9,9.7c-2.2,0-4,1.5-4,3.4
		c0,0.6-0.4,0.8-0.6,0.9c-0.5,0.3-0.9,0.8-0.9,1.5c0,0.9,0.7,1.6,1.6,1.6h8.2c0.9,0,1.6-0.7,1.6-1.6c0-0.8-0.6-1.5-1.4-1.6
		c-0.3,0-0.5-0.5-0.5-0.8C14.9,11.2,13.1,9.7,10.9,9.7z"/>
	<g>
		<defs>
			<polygon id="SVGID_1_" points="20.1,20.6 18.3,20.6 16,11.3 5.6,11.1 4.6,20.6 -0.1,20.6 -0.1,0.4 20.1,0.4 			"/>
		</defs>
		<clipPath id="SVGID_2_">
			<use xlink:href="#SVGID_1_"  style="overflow:visible;"/>
		</clipPath>
		<path class="st2" d="M3,14.6c-1.3,0-2.4-1.3-2.4-2.9c0-1.1,0.5-2.1,1.3-2.6C2,9.1,2.3,9,2.3,8.5c0-2.9,2.3-5.3,5.1-5.3
			c2.2,0,4.2,1.5,4.9,3.8c0,0.1,0.5,0.3,0.9,0.3c1.3,0,2.5,0.7,3.1,1.8c0.1,0.1,0.3,0.3,0.8,0.3c1.4,0,2.5,1.1,2.5,2.5
			c0,1.4-1.2,2.6-2.5,2.6l-4.9,0H3z M7.4,3.7c-2.5,0-4.6,2.1-4.6,4.8c0,0.9-0.6,1.1-0.7,1.2c-0.6,0.4-1.1,1.2-1.1,2.1
			c0,1.3,0.8,2.3,1.9,2.3l14.1,0c1.1,0,2-1,2-2.1c0-1.1-0.9-2-2-2c-0.6,0-1-0.2-1.2-0.5c-0.6-1-1.6-1.6-2.7-1.6
			c-0.6,0-1.3-0.3-1.4-0.7C11.2,5.1,9.4,3.7,7.4,3.7z"/>
	</g>
</g>
</svg>
