<?xml version="1.0" encoding="utf-8"?>
<!-- Generator: Adobe Illustrator 22.0.1, SVG Export Plug-In . SVG Version: 6.00 Build 0)  -->
<svg version="1.1" xmlns="http://www.w3.org/2000/svg" xmlns:xlink="http://www.w3.org/1999/xlink" x="0px" y="0px"
	 viewBox="0 0 20 20" style="enable-background:new 0 0 20 20;" xml:space="preserve">
<style type="text/css">
	.st0{fill:#FFFFFF;}
	.st1{fill:none;stroke:#7A7A7A;stroke-linecap:round;stroke-miterlimit:10;}
	.st2{opacity:0.25;fill:#28ABEF;}
	.st3{opacity:0.6;fill:#28ABEF;}
	.st4{fill:#28ABEF;}
	.st5{fill:#7A7A7A;}
</style>
<g id="Layer_2">
	<path class="st0" d="M7.7,1.2C6.8,1.7,6,2.5,5.8,3.1C5.6,3.6,5.5,4.5,5.4,4.8S5.1,5.4,4.9,5.4C4.8,5.5,3.8,6.3,3.7,6.8
		s0.4,2.1,1,2.3C5.3,9.3,14.5,9.4,15,9.4s1.5-0.7,1.7-1.1C16.9,8,17,7,16.7,6.4c-0.3-0.6-0.4-0.8-0.8-0.9s-1-0.1-1-0.5
		s-0.3-2-0.8-2.6c-0.5-0.6-2.4-1.9-3.9-1.8S8.6,0.8,8.6,0.8L7.7,1.2z"/>
</g>
<g id="Layer_1">
	<path class="st1" d="M3.9,16.6"/>
	<path class="st2" d="M15.9,14.5c-0.7,0-1.2-0.4-1.6-0.8C13.9,13.3,13.6,13,13,13c-0.4,0-0.6,0.2-0.9,0.5c-0.3,0.4-0.8,0.9-1.8,0.9
		c-0.9,0-1.3-0.4-1.7-0.8C8.3,13.3,8,13,7.4,13c-0.5,0-0.7,0.3-1.1,0.6C6,14,5.5,14.5,4.7,14.5c-0.7,0-1.2-0.5-1.6-0.9
		c-0.4-0.3-0.7-0.6-1-0.6c-0.2,0-0.4-0.2-0.4-0.4c0-0.2,0.2-0.4,0.4-0.4c0.6,0,1.1,0.4,1.5,0.8c0.4,0.3,0.8,0.7,1.2,0.7
		c0.5,0,0.8-0.3,1.1-0.6c0.4-0.4,0.8-0.8,1.6-0.8c0.9,0,1.3,0.4,1.7,0.8c0.4,0.4,0.7,0.6,1.2,0.6c0.6,0,0.9-0.3,1.2-0.7
		c0.3-0.4,0.7-0.8,1.4-0.8c0.9,0,1.4,0.5,1.8,0.9c0.4,0.3,0.6,0.6,1.1,0.6c0.5,0,0.8-0.3,1.1-0.6c0.4-0.4,0.9-0.8,1.6-0.8
		c0.2,0,0.4,0.2,0.4,0.4c0,0.2-0.2,0.4-0.4,0.4c-0.4,0-0.7,0.3-1.1,0.6C17.1,14,16.7,14.5,15.9,14.5z"/>
	<path class="st3" d="M15.9,16.9c-0.7,0-1.2-0.4-1.6-0.8c-0.4-0.4-0.7-0.7-1.3-0.7c-0.4,0-0.6,0.2-0.9,0.5c-0.3,0.4-0.8,0.9-1.8,0.9
		c-0.9,0-1.3-0.4-1.7-0.8c-0.4-0.3-0.6-0.6-1.2-0.6c-0.5,0-0.7,0.3-1.1,0.6c-0.4,0.4-0.8,0.9-1.6,0.9c-0.7,0-1.2-0.5-1.6-0.9
		c-0.4-0.3-0.7-0.6-1-0.6c-0.2,0-0.4-0.2-0.4-0.4c0-0.2,0.2-0.4,0.4-0.4c0.6,0,1.1,0.4,1.5,0.8c0.4,0.3,0.8,0.7,1.2,0.7
		c0.5,0,0.8-0.3,1.1-0.6c0.4-0.4,0.8-0.8,1.6-0.8c0.9,0,1.3,0.4,1.7,0.8c0.4,0.4,0.7,0.6,1.2,0.6c0.6,0,0.9-0.3,1.2-0.7
		c0.3-0.4,0.7-0.8,1.4-0.8c0.9,0,1.4,0.5,1.8,0.9c0.4,0.3,0.6,0.6,1.1,0.6c0.5,0,0.8-0.3,1.1-0.6c0.4-0.4,0.9-0.8,1.6-0.8
		c0.2,0,0.4,0.2,0.4,0.4c0,0.2-0.2,0.4-0.4,0.4c-0.4,0-0.7,0.3-1.1,0.6C17.1,16.4,16.7,16.9,15.9,16.9z"/>
	<path class="st4" d="M15.9,19.2c-0.7,0-1.2-0.4-1.6-0.8c-0.4-0.4-0.7-0.7-1.3-0.7c-0.4,0-0.6,0.2-0.9,0.5c-0.3,0.4-0.8,0.9-1.8,0.9
		c-0.9,0-1.3-0.4-1.7-0.8c-0.4-0.3-0.6-0.6-1.2-0.6c-0.5,0-0.7,0.3-1.1,0.6c-0.4,0.4-0.8,0.9-1.6,0.9c-0.7,0-1.2-0.5-1.6-0.9
		c-0.4-0.3-0.7-0.6-1-0.6c-0.2,0-0.4-0.2-0.4-0.4s0.2-0.4,0.4-0.4c0.6,0,1.1,0.4,1.5,0.8c0.4,0.3,0.8,0.7,1.2,0.7
		c0.5,0,0.8-0.3,1.1-0.6c0.4-0.4,0.8-0.8,1.6-0.8c0.9,0,1.3,0.4,1.7,0.8c0.4,0.4,0.7,0.6,1.2,0.6c0.6,0,0.9-0.3,1.2-0.7
		c0.3-0.4,0.7-0.8,1.4-0.8c0.9,0,1.4,0.5,1.8,0.9c0.4,0.3,0.6,0.6,1.1,0.6c0.5,0,0.8-0.3,1.1-0.6c0.4-0.4,0.9-0.8,1.6-0.8
		c0.2,0,0.4,0.2,0.4,0.4s-0.2,0.4-0.4,0.4c-0.4,0-0.7,0.3-1.1,0.6C17.1,18.8,16.7,19.2,15.9,19.2z"/>
	<path class="st5" d="M14.9,9.6H5.8c-1.3,0-2.3-1-2.3-2.3c0-0.9,0.5-1.7,1.3-2.1c0.1,0,0.4-0.1,0.4-0.5c0-2.3,2.2-4.3,5-4.3
		s5,1.9,5,4.3c0,0.1,0.1,0.3,0.1,0.3c1.1,0.1,2,1.1,2,2.3C17.2,8.6,16.1,9.6,14.9,9.6z M10.1,0.9c-2.5,0-4.5,1.7-4.5,3.8
		c0,0.7-0.6,1-0.7,1c-0.6,0.3-1,0.9-1,1.6c0,1,0.8,1.8,1.8,1.8h9.1c1,0,1.8-0.8,1.8-1.8c0-0.9-0.7-1.7-1.6-1.8
		c-0.3,0-0.5-0.5-0.5-0.8C14.6,2.6,12.6,0.9,10.1,0.9z"/>
</g>
</svg>
