<?xml version="1.0" encoding="utf-8"?>
<svg version="1.1" xmlns="http://www.w3.org/2000/svg" xmlns:xlink="http://www.w3.org/1999/xlink" x="0px" y="0px"
	 viewBox="0 0 20 20" style="enable-background:new 0 0 20 20;" xml:space="preserve">
<style type="text/css">
	.st0{stroke:#7A7A7A;stroke-linecap:round;stroke-miterlimit:10;}
	.st1{opacity:0.25;}
	.st2{opacity:0.6;}
</style>
<path class="st0" d="M-34.5,52.3"/>
<path class="st1" d="M15.8,14.8c-0.7,0-1.2-0.4-1.6-0.8c-0.4-0.4-0.8-0.7-1.4-0.7c-0.4,0-0.6,0.2-0.9,0.5c-0.3,0.4-0.8,0.9-1.8,0.9
	c-0.9,0-1.4-0.5-1.8-0.9c-0.4-0.4-0.7-0.6-1.2-0.6c-0.5,0-0.8,0.3-1.1,0.6c-0.4,0.4-0.8,0.9-1.7,0.9c-0.7,0-1.2-0.5-1.7-0.9
	c-0.4-0.3-0.7-0.6-1-0.6c-0.2,0-0.4-0.2-0.4-0.4c0-0.2,0.2-0.4,0.4-0.4c0.6,0,1.1,0.4,1.5,0.8c0.4,0.4,0.8,0.7,1.2,0.7
	c0.5,0,0.8-0.3,1.2-0.6c0.4-0.4,0.8-0.9,1.6-0.9c0.9,0,1.3,0.5,1.8,0.8c0.4,0.4,0.7,0.6,1.3,0.6c0.7,0,0.9-0.3,1.2-0.7
	c0.3-0.4,0.7-0.8,1.4-0.8c0.9,0,1.4,0.5,1.9,0.9c0.4,0.3,0.7,0.6,1.1,0.6c0.5,0,0.8-0.3,1.1-0.6c0.4-0.4,0.9-0.8,1.6-0.8
	c0.2,0,0.4,0.2,0.4,0.4c0,0.2-0.2,0.4-0.4,0.4c-0.5,0-0.8,0.3-1.1,0.6C17,14.4,16.5,14.8,15.8,14.8z"/>
<path class="st2" d="M15.8,17.3c-0.7,0-1.2-0.4-1.6-0.8c-0.4-0.4-0.8-0.7-1.4-0.7c-0.4,0-0.6,0.2-0.9,0.5c-0.3,0.4-0.8,0.9-1.8,0.9
	c-0.9,0-1.4-0.5-1.8-0.9C8,16,7.7,15.8,7.1,15.8c-0.5,0-0.8,0.3-1.1,0.6c-0.4,0.4-0.8,0.9-1.7,0.9c-0.7,0-1.2-0.5-1.7-0.9
	c-0.4-0.3-0.7-0.6-1-0.6c-0.2,0-0.4-0.2-0.4-0.4c0-0.2,0.2-0.4,0.4-0.4c0.6,0,1.1,0.4,1.5,0.8c0.4,0.4,0.8,0.7,1.2,0.7
	c0.5,0,0.8-0.3,1.2-0.6C5.8,15.5,6.3,15,7.1,15c0.9,0,1.3,0.5,1.8,0.8c0.4,0.4,0.7,0.6,1.3,0.6c0.7,0,0.9-0.3,1.2-0.7
	c0.3-0.4,0.7-0.8,1.4-0.8c0.9,0,1.4,0.5,1.9,0.9c0.4,0.3,0.7,0.6,1.1,0.6c0.5,0,0.8-0.3,1.1-0.6c0.4-0.4,0.9-0.8,1.6-0.8
	c0.2,0,0.4,0.2,0.4,0.4c0,0.2-0.2,0.4-0.4,0.4c-0.5,0-0.8,0.3-1.1,0.6C17,16.8,16.5,17.3,15.8,17.3z"/>
<path d="M15.8,19.7c-0.7,0-1.2-0.4-1.6-0.8c-0.4-0.4-0.8-0.7-1.4-0.7c-0.4,0-0.6,0.2-0.9,0.5c-0.3,0.4-0.8,0.9-1.8,0.9
	c-0.9,0-1.4-0.5-1.8-0.9c-0.4-0.4-0.7-0.6-1.2-0.6c-0.5,0-0.8,0.3-1.1,0.6c-0.4,0.4-0.8,0.9-1.7,0.9c-0.7,0-1.2-0.5-1.7-0.9
	c-0.4-0.3-0.7-0.6-1-0.6c-0.2,0-0.4-0.2-0.4-0.4c0-0.2,0.2-0.4,0.4-0.4c0.6,0,1.1,0.4,1.5,0.8c0.4,0.4,0.8,0.7,1.2,0.7
	c0.5,0,0.8-0.3,1.2-0.6c0.4-0.4,0.8-0.9,1.6-0.9c0.9,0,1.3,0.5,1.8,0.8c0.4,0.4,0.7,0.6,1.3,0.6c0.7,0,0.9-0.3,1.2-0.7
	c0.3-0.4,0.7-0.8,1.4-0.8c0.9,0,1.4,0.5,1.9,0.9c0.4,0.3,0.7,0.6,1.1,0.6c0.5,0,0.8-0.3,1.1-0.6c0.4-0.4,0.9-0.8,1.6-0.8
	c0.2,0,0.4,0.2,0.4,0.4c0,0.2-0.2,0.4-0.4,0.4c-0.5,0-0.8,0.3-1.1,0.6C17,19.2,16.5,19.7,15.8,19.7z"/>
<path d="M14.7,9.8H5.4C4.1,9.8,3,8.8,3,7.5c0-0.9,0.5-1.8,1.4-2.1c0.1,0,0.4-0.1,0.4-0.5c0-2.4,2.3-4.4,5.1-4.4s5.1,2,5.1,4.4
	c0,0.1,0.1,0.3,0.1,0.3c1.1,0.1,2,1.1,2,2.3C17.1,8.8,16,9.8,14.7,9.8z M9.8,0.9c-2.5,0-4.6,1.7-4.6,3.9c0,0.8-0.7,1-0.7,1
	c-0.6,0.3-1,1-1,1.7c0,1,0.8,1.9,1.9,1.9h9.3c1,0,1.9-0.8,1.9-1.9c0-0.9-0.7-1.7-1.6-1.9c-0.3,0-0.5-0.5-0.5-0.8
	C14.4,2.7,12.4,0.9,9.8,0.9z"/>
</svg>
