<?xml version="1.0" encoding="utf-8"?>
<svg version="1.1" xmlns="http://www.w3.org/2000/svg" xmlns:xlink="http://www.w3.org/1999/xlink" x="0px" y="0px"
	 viewBox="0 0 20 20" style="enable-background:new 0 0 20 20;" xml:space="preserve">
<g>
	<circle cx="12.9" cy="8.9" r="2.5"/>
	<path d="M12.9,15.6c-0.2,0-0.3-0.1-0.3-0.3v-3c0-0.2,0.1-0.3,0.3-0.3c0.2,0,0.3,0.1,0.3,0.3v3C13.2,15.5,13.1,15.6,12.9,15.6z"/>
	<path d="M12.9,5.8c-0.2,0-0.3-0.1-0.3-0.3v-3c0-0.2,0.1-0.3,0.3-0.3c0.2,0,0.3,0.1,0.3,0.3v3C13.2,5.7,13.1,5.8,12.9,5.8z"/>
	<path d="M19.3,9.2h-3c-0.2,0-0.3-0.1-0.3-0.3s0.1-0.3,0.3-0.3h3c0.2,0,0.3,0.1,0.3,0.3S19.5,9.2,19.3,9.2z"/>
	<path d="M9.5,9.2h-3c-0.2,0-0.3-0.1-0.3-0.3s0.1-0.3,0.3-0.3h3c0.2,0,0.3,0.1,0.3,0.3S9.7,9.2,9.5,9.2z"/>
	<path d="M15.3,6.8c-0.1,0-0.2,0-0.2-0.1c-0.1-0.1-0.1-0.3,0-0.4l2.1-2.1c0.1-0.1,0.3-0.1,0.4,0c0.1,0.1,0.1,0.3,0,0.4l-2.1,2.1
		C15.5,6.8,15.4,6.8,15.3,6.8z"/>
	<path d="M9.6,12.6c-0.1,0-0.2,0-0.2-0.1c-0.1-0.1-0.1-0.3,0-0.4l0.9-0.9c0.1-0.1,0.3-0.1,0.4,0s0.1,0.3,0,0.4l-0.9,0.9
		C9.7,12.5,9.7,12.6,9.6,12.6z"/>
	<path d="M10.5,6.8c-0.1,0-0.2,0-0.2-0.1L8.2,4.6c-0.1-0.1-0.1-0.3,0-0.4C8.3,4,8.5,4,8.6,4.2l2.1,2.1c0.1,0.1,0.1,0.3,0,0.4
		C10.7,6.8,10.6,6.8,10.5,6.8z"/>
	<path d="M17.5,13.8c-0.1,0-0.2,0-0.2-0.1l-2.1-2.1c-0.1-0.1-0.1-0.3,0-0.4c0.1-0.1,0.3-0.1,0.4,0l2.1,2.1c0.1,0.1,0.1,0.3,0,0.4
		C17.6,13.7,17.5,13.8,17.5,13.8z"/>
	<path d="M14.7,13.4c-0.1,0-0.2-0.1-0.3-0.2l-0.4-1c-0.1-0.2,0-0.3,0.2-0.4c0.2-0.1,0.3,0,0.4,0.2l0.4,1c0.1,0.2,0,0.3-0.2,0.4
		C14.7,13.4,14.7,13.4,14.7,13.4z"/>
	<path d="M11.6,6.1c-0.1,0-0.2-0.1-0.3-0.2l-0.4-1c-0.1-0.2,0-0.3,0.2-0.4c0.2-0.1,0.3,0,0.4,0.2l0.4,1c0.1,0.2,0,0.3-0.2,0.4
		C11.7,6.1,11.7,6.1,11.6,6.1z"/>
	<path d="M16.1,7.9c-0.1,0-0.2-0.1-0.3-0.2c-0.1-0.2,0-0.3,0.2-0.4l1-0.4c0.2-0.1,0.3,0,0.4,0.2c0.1,0.2,0,0.3-0.2,0.4l-1,0.4
		C16.2,7.9,16.1,7.9,16.1,7.9z"/>
	<path d="M8.8,11c-0.1,0-0.2-0.1-0.3-0.2c-0.1-0.2,0-0.3,0.2-0.4l1-0.4c0.2-0.1,0.3,0,0.4,0.2c0.1,0.2,0,0.3-0.2,0.4l-1,0.4
		C8.9,11,8.8,11,8.8,11z"/>
	<path d="M14.2,6.1c0,0-0.1,0-0.1,0c-0.2-0.1-0.2-0.2-0.2-0.4l0.4-1c0.1-0.2,0.2-0.2,0.4-0.2c0.2,0.1,0.2,0.2,0.2,0.4l-0.4,1
		C14.5,6,14.3,6.1,14.2,6.1z"/>
	<path d="M11.2,13.4c0,0-0.1,0-0.1,0c-0.2-0.1-0.2-0.2-0.2-0.4l0.4-1c0.1-0.2,0.2-0.2,0.4-0.2c0.2,0.1,0.2,0.2,0.2,0.4l-0.4,1
		C11.5,13.3,11.4,13.4,11.2,13.4z"/>
	<path d="M9.8,7.9c0,0-0.1,0-0.1,0l-1-0.4C8.5,7.4,8.4,7.3,8.5,7.1c0.1-0.2,0.2-0.2,0.4-0.2l1,0.4c0.2,0.1,0.2,0.2,0.2,0.4
		C10,7.9,9.9,7.9,9.8,7.9z"/>
	<path d="M17.1,10.9c0,0-0.1,0-0.1,0l-1-0.4c-0.2-0.1-0.2-0.2-0.2-0.4c0.1-0.2,0.2-0.2,0.4-0.2l1,0.4c0.2,0.1,0.2,0.2,0.2,0.4
		C17.3,10.8,17.2,10.9,17.1,10.9z"/>
</g>
<path d="M9.8,17.8H2.2c-1.1,0-1.9-0.9-1.9-1.9c0-0.7,0.4-1.4,1.1-1.8c0.1,0,0.3-0.1,0.3-0.4c0-2,1.9-3.6,4.2-3.6s4.2,1.6,4.2,3.6
	c0,0.1,0.1,0.3,0.1,0.3c0.9,0.1,1.6,0.9,1.6,1.9C11.7,16.9,10.9,17.8,9.8,17.8z M5.8,10.5c-2.1,0-3.8,1.4-3.8,3.2
	c0,0.6-0.5,0.8-0.6,0.8c-0.5,0.2-0.9,0.8-0.9,1.4c0,0.8,0.7,1.5,1.5,1.5h7.6c0.8,0,1.5-0.7,1.5-1.5c0-0.8-0.6-1.4-1.3-1.5
	c-0.3,0-0.4-0.4-0.4-0.7C9.6,11.9,7.9,10.5,5.8,10.5z"/>
</svg>
