<?xml version="1.0" encoding="utf-8"?>
<!-- Generator: Adobe Illustrator 23.0.3, SVG Export Plug-In . SVG Version: 6.00 Build 0)  -->
<svg version="1.1" id="pin" xmlns="http://www.w3.org/2000/svg" xmlns:xlink="http://www.w3.org/1999/xlink" x="0px" y="0px"
	 viewBox="0 0 24 24" enable-background="new 0 0 24 24" xml:space="preserve">
<path fill="none" d="M0,0h24v24H0V0z"/>
<path d="M12,2C8.13,2,5,5.13,5,9c0,4.1714,4.4192,9.921,6.235,12.1075c0.3988,0.4802,1.1312,0.4802,1.53,0
	C14.5808,18.921,19,13.1714,19,9C19,5.13,15.87,2,12,2z M12,18.8716C9.4585,15.6348,7,11.5957,7,9c0-2.7568,2.2432-5,5-5
	s5,2.2432,5,5C17,11.5957,14.5415,15.6348,12,18.8716z M12,11c-1.104,0-2-0.896-2-2s0.896-2,2-2s2,0.896,2,2S13.104,11,12,11z"/>
</svg>
