<?xml version="1.0" encoding="utf-8"?>
<svg version="1.1" xmlns="http://www.w3.org/2000/svg" xmlns:xlink="http://www.w3.org/1999/xlink" x="0px" y="0px"
	 viewBox="0 0 20 20" style="enable-background:new 0 0 20 20;" xml:space="preserve">
<style type="text/css">
	.st0{opacity:0.75;}
</style>
<path d="M3.8,17.8c-0.1,0-0.1,0-0.2,0c-0.2-0.1-0.4-0.3-0.3-0.6l0.4-1.1c0.1-0.2,0.3-0.4,0.6-0.3c0.2,0.1,0.4,0.3,0.3,0.6l-0.4,1.1
	C4.1,17.7,3.9,17.8,3.8,17.8z"/>
<path class="st0" d="M5.1,14.4c-0.1,0-0.1,0-0.2,0c-0.2-0.1-0.4-0.3-0.3-0.6l0.5-1.5c0,0,0.8-1.6,1-1.5C6.4,10.9,6,12.6,6,12.6
	l-0.5,1.4C5.4,14.2,5.3,14.4,5.1,14.4z"/>
<path d="M7.2,16.4c-0.1,0-0.1,0-0.2,0c-0.2-0.1-0.4-0.3-0.3-0.6l0.4-1.1c0.1-0.2,0.3-0.4,0.6-0.3C8,14.6,8.1,14.8,8,15.1l-0.4,1.1
	C7.5,16.3,7.4,16.4,7.2,16.4z"/>
<path class="st0" d="M8.4,13.1c-0.1,0-0.1,0-0.2,0C8,13,7.9,12.7,7.9,12.5l0.3-0.8c0,0,0.6-1,0.8-1c0.2,0.1,0,1.2,0,1.2l-0.3,0.9
	C8.7,13,8.5,13.1,8.4,13.1z"/>
<path d="M9.1,19.7c-0.1,0-0.1,0-0.2,0c-0.2-0.1-0.4-0.3-0.3-0.6L9,18c0.1-0.2,0.3-0.4,0.6-0.3c0.2,0.1,0.4,0.3,0.3,0.6l-0.4,1.1
	C9.4,19.6,9.3,19.7,9.1,19.7z"/>
<path class="st0" d="M10,16.5c0,0-0.1,0-0.2,0c-0.2-0.1-0.4-0.3-0.3-0.6l0.9-2.6c0,0,1.2-2.7,1.4-2.7c0.2,0.1-0.6,3-0.6,3l-0.9,2.6
	C10.4,16.4,10.2,16.5,10,16.5z"/>
<path d="M12.3,18.2c-0.1,0-0.1,0-0.2,0c-0.2-0.1-0.4-0.3-0.3-0.6l0.4-1.1c0.1-0.2,0.3-0.4,0.6-0.3c0.2,0.1,0.4,0.3,0.3,0.6L12.7,18
	C12.6,18.1,12.5,18.2,12.3,18.2z"/>
<path class="st0" d="M13.5,14.7c0,0-0.1,0-0.1,0c-0.2-0.1-0.4-0.3-0.3-0.6l0.6-1.6c0,0,0.9-2,1.1-1.9c0.2,0.1-0.3,2.2-0.3,2.2
	l-0.6,1.6C13.9,14.6,13.7,14.7,13.5,14.7z"/>
<path d="M4.2,11.6C4.2,11.6,4.2,11.6,4.2,11.6c-1.4-0.2-2.5-1.4-2.5-2.9c0-1.1,0.6-2.1,1.6-2.6c0.1,0,0.4-0.2,0.4-0.6
	c0-2.9,2.8-5.3,6.2-5.3c3.4,0,6.2,2.4,6.2,5.3c0,0.2,0.1,0.4,0.2,0.4c1.4,0.2,2.4,1.4,2.4,2.8c0,1.4-1,2.6-2.4,2.8
	c-0.2,0-0.3-0.1-0.3-0.3c0-0.2,0.1-0.3,0.3-0.3c1.1-0.2,1.9-1.1,1.9-2.2c0-1.1-0.8-2.1-1.9-2.3c-0.4,0-0.6-0.6-0.6-1
	c0-2.6-2.5-4.7-5.6-4.7S4.4,3,4.4,5.5c0,0.9-0.8,1.2-0.8,1.2c-0.8,0.4-1.3,1.2-1.3,2c0,1.1,0.8,2.1,1.9,2.3c0.2,0,0.3,0.2,0.3,0.3
	C4.5,11.5,4.4,11.6,4.2,11.6z"/>
</svg>
