<?xml version="1.0" encoding="utf-8"?>
<svg version="1.1" xmlns="http://www.w3.org/2000/svg" xmlns:xlink="http://www.w3.org/1999/xlink" x="0px" y="0px"
	 viewBox="0 0 20 20" style="enable-background:new 0 0 20 20;" xml:space="preserve">
<g>
	<path d="M3.4,17.6c-0.1,0-0.1,0-0.2,0C3,17.4,2.9,17.1,3,16.9l0.8-1.8c0.1-0.2,0.4-0.3,0.6-0.2c0.2,0.1,0.3,0.4,0.2,0.6l-0.8,1.8
		C3.8,17.4,3.6,17.6,3.4,17.6z"/>
	<path d="M5.2,13.4c-0.1,0-0.1,0-0.2,0c-0.2-0.1-0.3-0.4-0.2-0.6l0.9-2.1c0.1-0.2,0.4-0.3,0.6-0.2c0.2,0.1,0.3,0.4,0.2,0.6l-0.9,2.1
		C5.5,13.3,5.3,13.4,5.2,13.4z"/>
	<path d="M8.4,17.6c-0.1,0-0.1,0-0.2,0C8,17.4,7.9,17.1,8,16.9l0.8-1.8c0.1-0.2,0.4-0.3,0.6-0.2c0.2,0.1,0.3,0.4,0.2,0.6l-0.8,1.8
		C8.7,17.4,8.6,17.6,8.4,17.6z"/>
	<path d="M10.1,13.4c-0.1,0-0.1,0-0.2,0c-0.2-0.1-0.3-0.4-0.2-0.6l0.9-2.1c0.1-0.2,0.4-0.3,0.6-0.2c0.2,0.1,0.3,0.4,0.2,0.6
		l-0.9,2.1C10.5,13.3,10.3,13.4,10.1,13.4z"/>
	<path d="M13.1,17.6c-0.1,0-0.1,0-0.2,0c-0.2-0.1-0.3-0.4-0.2-0.6l0.8-1.8c0.1-0.2,0.4-0.3,0.6-0.2c0.2,0.1,0.3,0.4,0.2,0.6
		l-0.8,1.8C13.4,17.4,13.3,17.6,13.1,17.6z"/>
	<path d="M14.8,13.4c-0.1,0-0.1,0-0.2,0c-0.2-0.1-0.3-0.4-0.2-0.6l0.9-2.1c0.1-0.2,0.4-0.3,0.6-0.2c0.2,0.1,0.3,0.4,0.2,0.6
		l-0.9,2.1C15.2,13.3,15,13.4,14.8,13.4z"/>
	<path d="M9.8,19.9c-0.1,0-0.1,0-0.2,0c-0.2-0.1-0.3-0.4-0.2-0.6l0.8-1.8c0.1-0.2,0.4-0.3,0.6-0.2c0.2,0.1,0.3,0.4,0.2,0.6l-0.8,1.8
		C10.2,19.8,10,19.9,9.8,19.9z"/>
	<path d="M11.5,15.7c-0.1,0-0.1,0-0.2,0c-0.2-0.1-0.3-0.4-0.2-0.6L12,13c0.1-0.2,0.4-0.3,0.6-0.2c0.2,0.1,0.3,0.4,0.2,0.6L12,15.4
		C11.9,15.6,11.7,15.7,11.5,15.7z"/>
	<path d="M5,19.8c-0.1,0-0.1,0-0.2,0c-0.2-0.1-0.3-0.4-0.2-0.6l0.8-1.8c0.1-0.2,0.4-0.3,0.6-0.2c0.2,0.1,0.3,0.4,0.2,0.6l-0.8,1.8
		C5.3,19.7,5.1,19.8,5,19.8z"/>
	<path d="M6.7,15.7c-0.1,0-0.1,0-0.2,0c-0.2-0.1-0.3-0.4-0.2-0.6L7.1,13c0.1-0.2,0.4-0.3,0.6-0.2C8,12.8,8.1,13.1,8,13.3l-0.9,2.1
		C7.1,15.6,6.9,15.7,6.7,15.7z"/>
	<path d="M4.4,11.9C4.4,11.9,4.3,11.9,4.4,11.9C2.9,11.7,1.8,10.4,1.8,9c0-1.1,0.7-2.2,1.7-2.7C3.6,6.3,4,6.1,4,5.6
		c0-3,2.8-5.4,6.3-5.4s6.3,2.4,6.3,5.4c0,0.2,0.1,0.4,0.2,0.4c1.4,0.2,2.5,1.4,2.5,2.9c0,1.5-1,2.7-2.5,2.9c-0.2,0-0.3-0.1-0.4-0.3
		c0-0.2,0.1-0.3,0.3-0.4c1.1-0.2,2-1.1,2-2.3c0-1.2-0.9-2.2-2-2.3c-0.4,0-0.7-0.6-0.7-1c0-2.6-2.6-4.8-5.7-4.8S4.6,3,4.6,5.6
		c0,0.9-0.8,1.2-0.8,1.2C2.9,7.2,2.4,8.1,2.4,9c0,1.2,0.9,2.1,2,2.3c0.2,0,0.3,0.2,0.3,0.3C4.7,11.8,4.5,11.9,4.4,11.9z"/>
</g>
</svg>
