<?xml version="1.0" encoding="utf-8"?>
<svg version="1.1" xmlns="http://www.w3.org/2000/svg" xmlns:xlink="http://www.w3.org/1999/xlink" x="0px" y="0px"
	 viewBox="0 0 20 20" style="enable-background:new 0 0 20 20;" xml:space="preserve">
<g>
	<path d="M12.1,6.4c-0.1,0-0.1,0-0.2,0c-0.3-0.1-0.4-0.4-0.3-0.6l0.4-1c0.1-0.3,0.4-0.4,0.6-0.3C12.9,4.5,13,4.8,13,5.1l-0.4,1
		C12.5,6.3,12.3,6.4,12.1,6.4z"/>
</g>
<g>
	<path d="M13.7,2.5c-0.1,0-0.1,0-0.2,0c-0.3-0.1-0.4-0.4-0.3-0.6l0.4-1c0.1-0.3,0.4-0.4,0.6-0.3c0.3,0.1,0.4,0.4,0.3,0.6l-0.4,1
		C14.1,2.4,13.9,2.5,13.7,2.5z"/>
</g>
<g>
	<path d="M6.1,5.3c-0.1,0-0.1,0-0.2,0C5.7,5.2,5.5,4.9,5.6,4.7l0.4-1c0.1-0.3,0.4-0.4,0.6-0.3C6.9,3.5,7,3.8,6.9,4L6.6,5
		C6.5,5.2,6.3,5.3,6.1,5.3z"/>
</g>
<g>
	<path d="M8.4,8.2c-0.1,0-0.1,0-0.2,0C8,8.1,7.8,7.8,7.9,7.6l0.4-1c0.1-0.3,0.4-0.4,0.6-0.3c0.3,0.1,0.4,0.4,0.3,0.6l-0.4,1
		C8.8,8.1,8.6,8.2,8.4,8.2z"/>
</g>
<g>
	<path d="M9.9,4.4c-0.1,0-0.1,0-0.2,0C9.4,4.2,9.3,3.9,9.4,3.7l0.4-1c0.1-0.3,0.4-0.4,0.6-0.3c0.3,0.1,0.4,0.4,0.3,0.6l-0.4,1
		C10.3,4.2,10.1,4.4,9.9,4.4z"/>
</g>
<g>
	<path d="M15.4,7.7c-0.1,0-0.1,0-0.2,0C15,7.6,14.8,7.3,14.9,7l0.4-1c0.1-0.3,0.4-0.4,0.6-0.3c0.3,0.1,0.4,0.4,0.3,0.6l-0.4,1
		C15.8,7.6,15.6,7.7,15.4,7.7z"/>
</g>
<path d="M18.5,11.5H1.5C1.3,11.5,1,11.3,1,11c0-0.3,0.2-0.5,0.5-0.5h16.9c0.3,0,0.5,0.2,0.5,0.5C19,11.3,18.7,11.5,18.5,11.5z"/>
<path d="M10,19.7c-0.3,0-0.5-2.2-0.5-2.5l-0.2-5.8c0-0.3,0.4-0.5,0.7-0.5s0.8,0.2,0.8,0.5l-0.3,5.8C10.5,17.4,10.3,19.7,10,19.7z"/>
<path d="M7.3,15.5c-0.3,0-0.5-2.2-0.5-2.5v-1.6c0-0.3,0.2-0.5,0.5-0.5c0.3,0,0.5,0.2,0.5,0.5L7.9,13C7.9,13.2,7.6,15.5,7.3,15.5z"/>
<path d="M12.7,16.2c-0.3,0-0.5-2.2-0.5-2.5L12,11.4c0-0.3,0.4-0.5,0.7-0.5c0.3,0,0.9,0.2,0.9,0.5l-0.4,2.3
	C13.2,14,13,16.2,12.7,16.2z"/>
<path d="M15.4,17.7c-0.3,0-0.5-2.2-0.5-2.5l-0.3-3.8c0-0.3,0.5-0.5,0.8-0.5c0.3,0,0.8,0.2,0.8,0.5l-0.3,3.8
	C15.9,15.5,15.7,17.7,15.4,17.7z"/>
<path d="M4.5,16.7c-0.3,0-0.5-2.2-0.5-2.5l-0.2-2.8c0-0.3,0.4-0.5,0.7-0.5s0.8,0.2,0.8,0.5L5,14.1C5,14.4,4.8,16.7,4.5,16.7z"/>
<path d="M1.4,11.2c0,0,1.4,0.7,1.7,1s0.6,0.5,0.7,0.9c0.1,0.3,0.6,1.8,0.6,1.8s0.5-2.4,1.3-2.4c0.7,0,1.6,0.9,1.6,1.4
	c0,0.5,0.8-1.6,1.3-1.6c0.6,0,1.4,1.3,1.4,1.9c0,0.6,0.8-1.9,1.3-2s1.2,1.5,1.3,2c0.1,0.5,0.8-2,1.4-2c0.5,0,1.2,1.8,1.3,2.3
	s0.9-2.1,1.2-2.4c0.3-0.3,1.4-0.7,1.6-0.7c0.2,0,0.2-0.3,0.2-0.3L2,11.1L1.4,11.2z"/>
</svg>
