<?xml version="1.0" encoding="utf-8"?>
<!-- Generator: Adobe Illustrator 22.0.1, SVG Export Plug-In . SVG Version: 6.00 Build 0)  -->
<svg version="1.1" id="Layer_1" xmlns="http://www.w3.org/2000/svg" xmlns:xlink="http://www.w3.org/1999/xlink" x="0px" y="0px"
	 viewBox="0 0 20 20" style="enable-background:new 0 0 20 20;" xml:space="preserve">
<style type="text/css">
	.st0{fill:#7A7A7A;}
	.st1{fill:#28ABEF;}
</style>
<g>
	<path class="st0" d="M12.1,6.6c-0.1,0-0.1,0-0.2,0c-0.3-0.1-0.4-0.4-0.3-0.6L12,5c0.1-0.3,0.4-0.4,0.6-0.3c0.3,0.1,0.4,0.4,0.3,0.6
		l-0.4,1C12.5,6.5,12.3,6.6,12.1,6.6z"/>
</g>
<g>
	<path class="st0" d="M13.7,2.8c-0.1,0-0.1,0-0.2,0c-0.3-0.1-0.4-0.4-0.3-0.6l0.4-1c0.1-0.3,0.4-0.4,0.6-0.3
		c0.3,0.1,0.4,0.4,0.3,0.6l-0.4,1C14,2.7,13.9,2.8,13.7,2.8z"/>
</g>
<g>
	<path class="st0" d="M6.1,5.6c-0.1,0-0.1,0-0.2,0C5.7,5.5,5.6,5.2,5.7,4.9l0.4-1c0.1-0.3,0.4-0.4,0.6-0.3C6.9,3.7,7,4,6.9,4.3
		l-0.4,1C6.5,5.5,6.3,5.6,6.1,5.6z"/>
</g>
<g>
	<path class="st0" d="M8.4,8.5c-0.1,0-0.1,0-0.2,0C8,8.3,7.8,8,7.9,7.8l0.4-1c0.1-0.3,0.4-0.4,0.6-0.3c0.3,0.1,0.4,0.4,0.3,0.6
		l-0.4,1C8.8,8.3,8.6,8.5,8.4,8.5z"/>
</g>
<g>
	<path class="st0" d="M9.8,4.6c-0.1,0-0.1,0-0.2,0C9.4,4.5,9.3,4.2,9.4,4l0.4-1c0.1-0.3,0.4-0.4,0.6-0.3c0.3,0.1,0.4,0.4,0.3,0.6
		l-0.4,1C10.2,4.5,10,4.6,9.8,4.6z"/>
</g>
<g>
	<path class="st0" d="M15.3,7.9c-0.1,0-0.1,0-0.2,0c-0.3-0.1-0.4-0.4-0.3-0.6l0.4-1C15.3,6,15.6,5.9,15.9,6c0.3,0.1,0.4,0.4,0.3,0.6
		l-0.4,1C15.7,7.8,15.6,7.9,15.3,7.9z"/>
</g>
<path class="st1" d="M18.4,11.7H1.6c-0.3,0-0.5-0.2-0.5-0.5s0.2-0.5,0.5-0.5h16.7c0.3,0,0.5,0.2,0.5,0.5S18.6,11.7,18.4,11.7z"/>
<path class="st1" d="M10,19.7c-0.3,0-0.5-2.2-0.5-2.5l-0.2-5.7c0-0.3,0.4-0.5,0.7-0.5s0.8,0.2,0.8,0.5l-0.3,5.7
	C10.5,17.5,10.3,19.7,10,19.7z"/>
<path class="st1" d="M7.3,15.6c-0.3,0-0.5-1.2-0.5-1.5l-0.3-2.6c0-0.3,0.5-0.5,0.8-0.5s0.9,0.2,0.9,0.5l-0.4,2.6
	C7.8,14.4,7.6,15.6,7.3,15.6z"/>
<path class="st1" d="M12.6,16.3c-0.3,0-0.5-2.2-0.5-2.5l-0.4-2.3c0-0.3,0.6-0.5,0.9-0.5s0.8,0.2,0.8,0.5l-0.3,2.3
	C13.1,14.1,12.9,16.3,12.6,16.3z"/>
<path class="st1" d="M15.4,17.8c-0.3,0-0.5-2.2-0.5-2.5l-0.2-3.7c0-0.3,0.4-0.5,0.7-0.5s0.9,0.2,0.9,0.5l-0.4,3.7
	C15.9,15.6,15.6,17.8,15.4,17.8z"/>
<path class="st1" d="M4.6,16.8c-0.3,0-0.4-1.2-0.4-1.5L4,11.6c0-0.3,0.3-0.5,0.6-0.5c0.3,0,0.9,0.2,0.9,0.5l-0.4,3.7
	C5.1,15.6,4.8,16.8,4.6,16.8z"/>
<path class="st1" d="M1.5,11.4c0,0,1.4,0.7,1.7,1s0.6,0.5,0.7,0.9S4.6,15,4.6,15s0.5-2.4,1.2-2.4s1.5,0.9,1.5,1.4
	c0,0.5,0.7-1.5,1.3-1.5s1.3,1.3,1.3,1.9c0,0.6,0.7-1.9,1.3-1.9c0.5,0,1.2,1.4,1.3,2c0.1,0.5,0.8-2,1.4-2s1.2,1.8,1.3,2.3
	c0.1,0.5,0.9-2.1,1.2-2.4c0.3-0.3,1.4-0.7,1.6-0.7s0.2-0.3,0.2-0.3L2.1,11.2L1.5,11.4z"/>
</svg>
