<?xml version="1.0" encoding="utf-8"?>
<!-- Generator: Adobe Illustrator 22.0.1, SVG Export Plug-In . SVG Version: 6.00 Build 0)  -->
<svg version="1.1" xmlns="http://www.w3.org/2000/svg" xmlns:xlink="http://www.w3.org/1999/xlink" x="0px" y="0px"
	 viewBox="0 0 20 20" style="enable-background:new 0 0 20 20;" xml:space="preserve">
<style type="text/css">
	.st0{fill:#FFFFFF;}
	.st1{fill:#28ABEF;}
	.st2{opacity:0.75;fill:#7A7A7A;}
	.st3{fill:#7A7A7A;}
</style>
<g id="Layer_2">
	<path class="st0" d="M8.7,1C7.7,1.3,6.5,2,6,2.5S4.9,4,4.8,4.5S4.8,6,4.4,6.3C4.1,6.6,3.2,7,3,7.4C2.8,7.8,2.5,8.8,2.6,9.3
		c0.1,0.5,0.5,1.2,0.8,1.4C3.8,11,5,11.4,5,11.4h11.3c0,0,0.3-0.1,1-0.2c0.7-0.1,1.1-0.9,1.2-1.1s0.3-1,0.3-1.3s-0.2-1.3-0.7-1.7
		s-1.2-0.6-1.5-0.7c-0.3-0.2-0.3-0.5-0.5-1c-0.1-0.5-0.3-2.2-1.2-2.8s-2.6-1.9-4-1.9C9.7,0.8,8.7,1,8.7,1z"/>
</g>
<g id="Layer_1">
	<path class="st1" d="M4.3,17.7c-0.1,0-0.1,0-0.2,0c-0.2-0.1-0.3-0.3-0.3-0.6l0.4-1c0.1-0.2,0.3-0.3,0.6-0.3
		c0.2,0.1,0.3,0.3,0.3,0.6l-0.4,1C4.6,17.6,4.4,17.7,4.3,17.7z"/>
	<path class="st2" d="M5.6,14.3c-0.1,0-0.1,0-0.2,0c-0.2-0.1-0.3-0.3-0.3-0.6l0.5-1.4c0,0,0.8-1.6,1-1.5c0.2,0.1-0.2,1.8-0.2,1.8
		L6,14C5.9,14.2,5.7,14.3,5.6,14.3z"/>
	<path class="st1" d="M7.6,16.3c-0.1,0-0.1,0-0.2,0c-0.2-0.1-0.3-0.3-0.3-0.6l0.4-1c0.1-0.2,0.3-0.3,0.6-0.3
		c0.2,0.1,0.3,0.3,0.3,0.6l-0.4,1C8,16.2,7.8,16.3,7.6,16.3z"/>
	<path class="st2" d="M8.8,13c-0.1,0-0.1,0-0.2,0c-0.2-0.1-0.3-0.3-0.3-0.6l0.3-0.8c0,0,0.6-1,0.8-0.9c0.2,0.1,0,1.2,0,1.2l-0.3,0.9
		C9.1,12.9,9,13,8.8,13z"/>
	<path class="st1" d="M9.5,19.5c-0.1,0-0.1,0-0.2,0C9.1,19.4,9,19.2,9.1,19l0.4-1c0.1-0.2,0.3-0.3,0.6-0.3c0.2,0.1,0.3,0.3,0.3,0.6
		l-0.4,1C9.9,19.4,9.7,19.5,9.5,19.5z"/>
	<path class="st2" d="M10.5,16.4c0,0-0.1,0-0.1,0C10.1,16.3,10,16,10,15.8l0.9-2.6c0,0,1.2-2.7,1.4-2.6c0.2,0.1-0.6,2.9-0.6,2.9
		l-0.9,2.6C10.8,16.3,10.6,16.4,10.5,16.4z"/>
	<path class="st1" d="M12.7,18.1c-0.1,0-0.1,0-0.2,0c-0.2-0.1-0.3-0.3-0.3-0.6l0.4-1c0.1-0.2,0.3-0.3,0.6-0.3
		c0.2,0.1,0.3,0.3,0.3,0.6l-0.4,1C13,18,12.8,18.1,12.7,18.1z"/>
	<path class="st2" d="M13.9,14.6c0,0-0.1,0-0.1,0c-0.2-0.1-0.4-0.3-0.3-0.6l0.5-1.6c0,0,0.9-1.9,1.1-1.9c0.2,0.1-0.3,2.1-0.3,2.1
		l-0.6,1.6C14.2,14.5,14.1,14.6,13.9,14.6z"/>
	<path class="st3" d="M4.7,11.6C4.7,11.6,4.7,11.6,4.7,11.6c-1.4-0.2-2.5-1.4-2.5-2.8c0-1.1,0.6-2.1,1.6-2.6c0.1,0,0.4-0.2,0.4-0.6
		c0-2.9,2.7-5.2,6.1-5.2c3.4,0,6.1,2.3,6.1,5.2c0,0.2,0.1,0.4,0.2,0.4C18,6.2,19,7.4,19,8.8c0,1.4-1,2.6-2.4,2.8
		c-0.2,0-0.3-0.1-0.3-0.2c0-0.2,0.1-0.3,0.2-0.3c1.1-0.2,1.9-1.1,1.9-2.2c0-1.1-0.8-2.1-1.9-2.2c-0.4,0-0.6-0.6-0.6-1
		c0-2.5-2.5-4.6-5.5-4.6S4.9,3.1,4.9,5.6c0,0.9-0.8,1.2-0.8,1.2c-0.7,0.4-1.3,1.2-1.3,2c0,1.1,0.8,2.1,1.9,2.2C4.9,11,5,11.2,5,11.4
		C5,11.5,4.9,11.6,4.7,11.6z"/>
</g>
</svg>
