<?xml version="1.0" encoding="utf-8"?>
<!-- Generator: Adobe Illustrator 22.0.1, SVG Export Plug-In . SVG Version: 6.00 Build 0)  -->
<svg version="1.1" xmlns="http://www.w3.org/2000/svg" xmlns:xlink="http://www.w3.org/1999/xlink" x="0px" y="0px"
	 viewBox="0 0 20 20" style="enable-background:new 0 0 20 20;" xml:space="preserve">
<style type="text/css">
	.st0{fill:#28ABEF;}
	.st1{opacity:0.6;}
	.st2{opacity:0.4;}
</style>
<g id="Layer_1">
	<g>
		<path class="st0" d="M5.6,15.9c-0.2,0-0.4-0.1-0.5-0.3c-0.2-0.3-0.1-0.6,0.2-0.7L16,8.5c0.3-0.2,0.6-0.1,0.7,0.2
			c0.2,0.3,0.1,0.6-0.2,0.7L5.9,15.9C5.8,15.9,5.7,15.9,5.6,15.9z"/>
		<path class="st0" d="M7.5,17.2C7.4,17.2,7.4,17.2,7.5,17.2c-0.3,0-0.6-0.3-0.5-0.6l0.2-2.1l-2-0.7c-0.3-0.1-0.4-0.4-0.3-0.7
			c0.1-0.3,0.4-0.4,0.7-0.3l2.8,1l-0.3,3C8,17,7.7,17.2,7.5,17.2z"/>
		<path class="st0" d="M16.7,11.6c-0.1,0-0.1,0-0.2,0l-2.8-1.1L14,7.7c0-0.3,0.3-0.5,0.6-0.5c0.3,0,0.5,0.3,0.5,0.6l-0.2,2l2,0.8
			c0.3,0.1,0.4,0.4,0.3,0.7C17.1,11.5,16.9,11.6,16.7,11.6z"/>
		<g>
			<path class="st0" d="M11.4,18.7c-0.1,0.2-0.3,0.3-0.5,0.3c-0.3,0-0.5-0.2-0.5-0.5L10.5,6c0-0.3,0.2-0.5,0.5-0.5
				c0.3,0,0.5,0.2,0.5,0.5l-0.1,12.5C11.5,18.6,11.4,18.7,11.4,18.7z"/>
			<path class="st0" d="M13.5,17.9C13.4,17.9,13.4,17.9,13.5,17.9c-0.2,0.3-0.5,0.3-0.8,0.1L11,16.7L9.3,18
				c-0.2,0.2-0.6,0.1-0.8-0.1c-0.2-0.2-0.1-0.6,0.1-0.8l2.3-1.8l2.4,1.8C13.5,17.3,13.6,17.6,13.5,17.9z"/>
			<path class="st0" d="M13.5,7.1c0,0.1-0.1,0.1-0.1,0.1L11,9L8.7,7.3C8.5,7.1,8.4,6.7,8.6,6.5c0.2-0.2,0.5-0.3,0.8-0.1L11,7.7
				l1.7-1.3c0.2-0.2,0.6-0.1,0.8,0.1C13.6,6.7,13.6,6.9,13.5,7.1z"/>
			<path class="st0" d="M16.8,15.3c0.1,0.2,0.1,0.4,0,0.5c-0.2,0.3-0.5,0.3-0.7,0.2L5.4,9.4C5.2,9.2,5.1,8.9,5.2,8.7
				C5.4,8.4,5.7,8.3,6,8.5l10.6,6.6C16.7,15.2,16.7,15.2,16.8,15.3z"/>
			<path class="st0" d="M17.1,13.1C17.1,13.1,17.1,13.1,17.1,13.1c0.1,0.3,0,0.6-0.3,0.7l-2,0.8l0.3,2.1c0,0.3-0.2,0.6-0.5,0.6
				c-0.3,0-0.6-0.2-0.6-0.5l-0.4-2.9l2.8-1.1C16.7,12.7,17,12.9,17.1,13.1z"/>
			<path class="st0" d="M7.9,7.4C8,7.5,8,7.5,8,7.6l0.3,3l-2.7,1c-0.3,0.1-0.6,0-0.7-0.3c-0.1-0.3,0-0.6,0.3-0.7l1.9-0.7L6.9,7.7
				c0-0.3,0.2-0.6,0.5-0.6C7.6,7.1,7.9,7.2,7.9,7.4z"/>
		</g>
	</g>
	<g class="st1">
		<path class="st0" d="M15.1,4.7c-0.1,0-0.1,0-0.2-0.1c-0.1-0.1,0-0.2,0.1-0.3l4-2.4c0.1-0.1,0.2,0,0.3,0.1c0.1,0.1,0,0.2-0.1,0.3
			l-4,2.4C15.2,4.7,15.1,4.7,15.1,4.7z"/>
		<path class="st0" d="M15.8,5.2C15.8,5.2,15.8,5.2,15.8,5.2c-0.1,0-0.2-0.1-0.2-0.2l0.1-0.8l-0.7-0.3c-0.1,0-0.2-0.2-0.1-0.3
			c0-0.1,0.2-0.2,0.3-0.1l1,0.4L16,5C16,5.1,15.9,5.2,15.8,5.2z"/>
		<path class="st0" d="M19.2,3.1C19.2,3.1,19.2,3.1,19.2,3.1l-1.1-0.4l0.1-1.1c0-0.1,0.1-0.2,0.2-0.2c0.1,0,0.2,0.1,0.2,0.2
			l-0.1,0.8l0.7,0.3c0.1,0,0.2,0.2,0.1,0.3C19.4,3.1,19.3,3.1,19.2,3.1z"/>
		<g>
			<path class="st0" d="M17.3,5.7c0,0.1-0.1,0.1-0.2,0.1c-0.1,0-0.2-0.1-0.2-0.2l0-4.6c0-0.1,0.1-0.2,0.2-0.2c0.1,0,0.2,0.1,0.2,0.2
				l0,4.6C17.3,5.7,17.3,5.7,17.3,5.7z"/>
			<path class="st0" d="M18,5.4C18,5.4,18,5.4,18,5.4c-0.1,0.1-0.2,0.1-0.3,0.1L17.1,5l-0.6,0.5c-0.1,0.1-0.2,0.1-0.3,0
				c-0.1-0.1-0.1-0.2,0-0.3l0.8-0.7L18,5.2C18,5.2,18.1,5.3,18,5.4z"/>
			<path class="st0" d="M18,1.4C18,1.4,18,1.4,18,1.4l-0.9,0.7l-0.8-0.6c-0.1-0.1-0.1-0.2,0-0.3c0.1-0.1,0.2-0.1,0.3,0l0.6,0.5
				l0.6-0.5c0.1-0.1,0.2,0,0.3,0C18.1,1.3,18.1,1.3,18,1.4z"/>
			<path class="st0" d="M19.3,4.5c0,0.1,0,0.1,0,0.2c-0.1,0.1-0.2,0.1-0.3,0.1L15,2.3C14.9,2.2,14.9,2.1,15,2
				c0.1-0.1,0.2-0.1,0.3-0.1L19.3,4.5C19.2,4.4,19.2,4.4,19.3,4.5z"/>
			<path class="st0" d="M19.4,3.6C19.4,3.7,19.4,3.7,19.4,3.6c0,0.1,0,0.2-0.1,0.3l-0.7,0.3L18.6,5c0,0.1-0.1,0.2-0.2,0.2
				c-0.1,0-0.2-0.1-0.2-0.2L18.1,4l1-0.4C19.2,3.5,19.3,3.6,19.4,3.6z"/>
			<path class="st0" d="M16,1.5C16,1.6,16,1.6,16,1.5l0.1,1.2l-1,0.4c-0.1,0-0.2,0-0.3-0.1c0-0.1,0-0.2,0.1-0.3l0.7-0.3l-0.1-0.8
				c0-0.1,0.1-0.2,0.2-0.2C15.9,1.4,15.9,1.5,16,1.5z"/>
		</g>
	</g>
	<g class="st2">
		<path class="st0" d="M1.1,7.1C1,7.1,1,7.1,0.9,7c0-0.1,0-0.2,0.1-0.2l3.2-1.9c0.1,0,0.2,0,0.2,0.1c0,0.1,0,0.2-0.1,0.2L1.1,7.1
			C1.1,7.1,1.1,7.1,1.1,7.1z"/>
		<path class="st0" d="M1.6,7.5C1.6,7.5,1.6,7.5,1.6,7.5c-0.1,0-0.2-0.1-0.2-0.2l0.1-0.6L0.9,6.5c-0.1,0-0.1-0.1-0.1-0.2
			c0-0.1,0.1-0.1,0.2-0.1l0.8,0.3L1.8,7.3C1.8,7.4,1.7,7.5,1.6,7.5z"/>
		<path class="st0" d="M4.3,5.8C4.3,5.8,4.3,5.8,4.3,5.8L3.5,5.5l0.1-0.8c0-0.1,0.1-0.1,0.2-0.1c0.1,0,0.1,0.1,0.1,0.2L3.8,5.3
			l0.6,0.2c0.1,0,0.1,0.1,0.1,0.2C4.5,5.8,4.4,5.8,4.3,5.8z"/>
		<g>
			<path class="st0" d="M2.8,7.9C2.8,8,2.7,8,2.6,8C2.6,8,2.5,7.9,2.5,7.8l0-3.7C2.5,4.1,2.6,4,2.7,4c0.1,0,0.2,0.1,0.2,0.2L2.8,7.9
				C2.8,7.9,2.8,7.9,2.8,7.9z"/>
			<path class="st0" d="M3.4,7.7C3.4,7.7,3.4,7.7,3.4,7.7c-0.1,0.1-0.2,0.1-0.2,0L2.7,7.3L2.2,7.7C2.1,7.8,2,7.8,2,7.7
				c-0.1-0.1,0-0.2,0-0.2l0.7-0.5l0.7,0.5C3.4,7.5,3.4,7.6,3.4,7.7z"/>
			<path class="st0" d="M3.4,4.5C3.4,4.5,3.4,4.5,3.4,4.5L2.7,5L2,4.5C1.9,4.5,1.9,4.4,2,4.3c0.1-0.1,0.2-0.1,0.2,0l0.5,0.4l0.5-0.4
				c0.1-0.1,0.2,0,0.2,0C3.4,4.4,3.4,4.4,3.4,4.5z"/>
			<path class="st0" d="M4.4,6.9c0,0,0,0.1,0,0.2c0,0.1-0.1,0.1-0.2,0.1L1,5.2C0.9,5.1,0.9,5,1,4.9c0-0.1,0.1-0.1,0.2-0.1L4.4,6.9
				C4.3,6.9,4.4,6.9,4.4,6.9z"/>
			<path class="st0" d="M4.5,6.3C4.5,6.3,4.5,6.3,4.5,6.3c0,0.1,0,0.2-0.1,0.2L3.8,6.7l0.1,0.6c0,0.1-0.1,0.2-0.1,0.2
				c-0.1,0-0.2-0.1-0.2-0.1L3.4,6.5l0.8-0.3C4.3,6.2,4.4,6.2,4.5,6.3z"/>
			<path class="st0" d="M1.8,4.6C1.8,4.6,1.8,4.6,1.8,4.6l0.1,0.9L1.1,5.8c-0.1,0-0.2,0-0.2-0.1c0-0.1,0-0.2,0.1-0.2l0.6-0.2
				L1.5,4.7c0-0.1,0.1-0.2,0.1-0.2C1.7,4.5,1.7,4.5,1.8,4.6z"/>
		</g>
	</g>
</g>
<g id="Layer_2">
</g>
</svg>
