<svg version="1.1" xmlns="http://www.w3.org/2000/svg" xmlns:xlink="http://www.w3.org/1999/xlink" x="0px" y="0px"
	 viewBox="0 0 20 20" style="enable-background:new 0 0 20 20;" xml:space="preserve">
<g>
	<circle cx="10" cy="10" r="2.9"/>
	<path  d="M10,17.8c-0.2,0-0.4-0.2-0.4-0.4v-3.5c0-0.2,0.2-0.4,0.4-0.4s0.4,0.2,0.4,0.4v3.5C10.4,17.6,10.2,17.8,10,17.8
		z"/>
	<path d="M10,6.4c-0.2,0-0.4-0.2-0.4-0.4V2.6c0-0.2,0.2-0.4,0.4-0.4s0.4,0.2,0.4,0.4v3.5C10.4,6.3,10.2,6.4,10,6.4z"/>
	<path d="M17.4,10.4h-3.5c-0.2,0-0.4-0.2-0.4-0.4s0.2-0.4,0.4-0.4h3.5c0.2,0,0.4,0.2,0.4,0.4S17.6,10.4,17.4,10.4z"/>
	<path d="M6.1,10.4H2.6c-0.2,0-0.4-0.2-0.4-0.4s0.2-0.4,0.4-0.4h3.5c0.2,0,0.4,0.2,0.4,0.4S6.3,10.4,6.1,10.4z"/>
	<path d="M12.8,7.6c-0.1,0-0.2,0-0.3-0.1c-0.1-0.1-0.1-0.4,0-0.5L15,4.5c0.1-0.1,0.4-0.1,0.5,0s0.1,0.4,0,0.5L13,7.5
		C13,7.5,12.9,7.6,12.8,7.6z"/>
	<path d="M4.8,15.6c-0.1,0-0.2,0-0.3-0.1c-0.1-0.1-0.1-0.4,0-0.5L7,12.5c0.1-0.1,0.4-0.1,0.5,0c0.1,0.1,0.1,0.4,0,0.5
		L5,15.5C5,15.6,4.9,15.6,4.8,15.6z"/>
	<path d="M7.2,7.6C7.1,7.6,7,7.5,7,7.5L4.5,5c-0.1-0.1-0.1-0.4,0-0.5s0.4-0.1,0.5,0L7.5,7c0.1,0.1,0.1,0.4,0,0.5
		C7.4,7.5,7.3,7.6,7.2,7.6z"/>
	<path d="M15.2,15.6c-0.1,0-0.2,0-0.3-0.1L12.5,13c-0.1-0.1-0.1-0.4,0-0.5c0.1-0.1,0.4-0.1,0.5,0l2.5,2.5
		c0.1,0.1,0.1,0.4,0,0.5C15.4,15.6,15.3,15.6,15.2,15.6z"/>
	<path d="M12,15.1c-0.1,0-0.3-0.1-0.3-0.2l-0.5-1.1c-0.1-0.2,0-0.4,0.2-0.5c0.2-0.1,0.4,0,0.5,0.2l0.5,1.1
		c0.1,0.2,0,0.4-0.2,0.5C12.1,15.1,12.1,15.1,12,15.1z"/>
	<path d="M8.5,6.7c-0.1,0-0.3-0.1-0.3-0.2L7.7,5.4C7.6,5.2,7.7,5,7.9,4.9c0.2-0.1,0.4,0,0.5,0.2l0.5,1.2
		c0.1,0.2,0,0.4-0.2,0.5C8.6,6.7,8.5,6.7,8.5,6.7z"/>
	<path d="M13.6,8.8c-0.1,0-0.3-0.1-0.3-0.2c-0.1-0.2,0-0.4,0.2-0.5l1.1-0.5c0.2-0.1,0.4,0,0.5,0.2
		c0.1,0.2,0,0.4-0.2,0.5l-1.1,0.5C13.7,8.8,13.7,8.8,13.6,8.8z"/>
	<path d="M5.2,12.4c-0.1,0-0.3-0.1-0.3-0.2c-0.1-0.2,0-0.4,0.2-0.5l1.2-0.5c0.2-0.1,0.4,0,0.5,0.2
		c0.1,0.2,0,0.4-0.2,0.5l-1.2,0.5C5.3,12.4,5.3,12.4,5.2,12.4z"/>
	<path d="M11.5,6.7c0,0-0.1,0-0.1,0c-0.2-0.1-0.3-0.3-0.2-0.5l0.5-1.1c0.1-0.2,0.3-0.3,0.5-0.2c0.2,0.1,0.3,0.3,0.2,0.5
		l-0.5,1.1C11.8,6.6,11.6,6.7,11.5,6.7z"/>
	<path d="M8,15.2c0,0-0.1,0-0.1,0c-0.2-0.1-0.3-0.3-0.2-0.5l0.5-1.2c0.1-0.2,0.3-0.3,0.5-0.2c0.2,0.1,0.3,0.3,0.2,0.5
		l-0.5,1.2C8.3,15.1,8.2,15.2,8,15.2z"/>
	<path d="M6.3,8.9c0,0-0.1,0-0.1,0L5.1,8.4C4.9,8.3,4.8,8.1,4.9,7.9c0.1-0.2,0.3-0.3,0.5-0.2l1.1,0.5
		c0.2,0.1,0.3,0.3,0.2,0.5C6.6,8.8,6.5,8.9,6.3,8.9z"/>
	<path d="M14.8,12.3c0,0-0.1,0-0.1,0l-1.2-0.5c-0.2-0.1-0.3-0.3-0.2-0.5c0.1-0.2,0.3-0.3,0.5-0.2l1.2,0.5
		c0.2,0.1,0.3,0.3,0.2,0.5C15.1,12.2,14.9,12.3,14.8,12.3z"/>
</g>
</svg>
