<?xml version="1.0" encoding="utf-8"?>
<!-- Generator: Adobe Illustrator 22.0.1, SVG Export Plug-In . SVG Version: 6.00 Build 0)  -->
<svg version="1.1" xmlns="http://www.w3.org/2000/svg" xmlns:xlink="http://www.w3.org/1999/xlink" x="0px" y="0px"
	 viewBox="0 0 20 20" style="enable-background:new 0 0 20 20;" xml:space="preserve">
<style type="text/css">
	.st0{fill:#FFFFFF;}
	.st1{fill:#7A7A7A;}
	.st2{fill:url(#SVGID_1_);}
</style>
<g id="Layer_2">
	<path class="st0" d="M7.1,1.3C6.4,1.6,5.8,2.2,5.3,2.7s-0.9,1.1-1,1.7C4.1,5,4.2,5.9,3.9,6.1C3.6,6.3,2.8,7,2.7,7.1
		C2.5,7.3,2,8.8,2.2,9.5s1.1,1.5,1.6,1.6c0.4,0,3.2,0,3.2,0h4.9c0,0,3.1,0,3.5,0s1.1-0.2,1.6-0.7c0.5-0.5,0.9-1.9,0.8-2.3
		c-0.1-0.4-0.4-0.9-0.9-1.4c-0.6-0.5-1.1-0.7-1.3-0.6c-0.1,0-0.3-0.7-0.4-1.1c-0.1-0.4-0.3-1.6-0.9-2.2s-2.9-2.1-4.4-2
		S7.1,1.3,7.1,1.3z"/>
</g>
<g id="Layer_1">
	<path class="st1" d="M15.3,11.4h-3.1c-0.2,0-0.3-0.1-0.3-0.3s0.1-0.3,0.3-0.3h3.1c1.2,0,2.2-1,2.2-2.2c0-1.1-0.8-2-1.9-2.2
		c-0.4,0-0.6-0.6-0.6-1c0-2.5-2.4-4.5-5.3-4.5s-5.3,2-5.3,4.5c0,0.9-0.8,1.1-0.8,1.1C2.8,7,2.3,7.8,2.3,8.7c0,1.2,1,2.2,2.2,2.2h2.2
		C6.9,10.8,7,11,7,11.1s-0.1,0.3-0.3,0.3H4.5c-1.5,0-2.8-1.2-2.8-2.8c0-1.1,0.6-2,1.6-2.5c0.1,0,0.4-0.2,0.4-0.6
		c0-2.8,2.7-5.1,5.9-5.1s5.9,2.3,5.9,5.1c0,0.2,0.1,0.4,0.1,0.4C17,6.1,18,7.3,18,8.7C18,10.2,16.8,11.4,15.3,11.4z"/>
	<linearGradient id="SVGID_1_" gradientUnits="userSpaceOnUse" x1="9.8812" y1="9.5221" x2="9.8812" y2="19.8135">
		<stop  offset="0" style="stop-color:#EC6F32"/>
		<stop  offset="6.289589e-02" style="stop-color:#EC7935"/>
		<stop  offset="0.2401" style="stop-color:#EE8E3B"/>
		<stop  offset="0.4364" style="stop-color:#EE9D40"/>
		<stop  offset="0.6646" style="stop-color:#EFA642"/>
		<stop  offset="1" style="stop-color:#EFA943"/>
	</linearGradient>
	<polygon class="st2" points="8.3,9.5 7.6,14.2 9.2,14.2 8.4,19.8 12.2,12.2 10.5,12.2 11.4,9.5 	"/>
</g>
</svg>
