<?xml version="1.0" encoding="utf-8"?>
<!-- Generator: Adobe Illustrator 23.0.3, SVG Export Plug-In . SVG Version: 6.00 Build 0)  -->
<svg version="1.1" id="climacell-icon" xmlns="http://www.w3.org/2000/svg" xmlns:xlink="http://www.w3.org/1999/xlink" x="0px"
	 y="0px" viewBox="0 0 24 24" enable-background="new 0 0 24 24" xml:space="preserve">
<rect fill-rule="evenodd" clip-rule="evenodd" fill="none" width="24" height="24"/>
<path fill-rule="evenodd" clip-rule="evenodd" d="M2,12.943c0.0751,0.7721,0.2376,1.5178,0.474,2.2294
	c1.2028,0.7906,2.0067,2.1351,2.1151,3.6256c0.4914,0.5423,1.0415,1.0288,1.6381,1.4531c0.0694-0.3799,0.1101-0.7663,0.1101-1.1602
	C6.3374,16.2593,4.5203,13.7978,2,12.943z M11.001,19.0909c0-0.0898-0.0012-0.1792-0.003-0.2686
	c-0.0044-0.1779-0.0122-0.3553-0.0244-0.5315v-0.0006c-0.0061-0.088-0.0131-0.1758-0.021-0.2632
	c-0.016-0.175-0.0358-0.349-0.0597-0.5216c-0.0236-0.1726-0.0512-0.344-0.0825-0.5141c-0.0312-0.17-0.0662-0.339-0.1047-0.5064
	c-0.0386-0.1667-0.0808-0.3327-0.1266-0.4971c-0.0684-0.2452-0.1456-0.4905-0.2295-0.7289
	c-0.195-0.5527-0.4342-1.0945-0.7115-1.6101C8.1518,10.8858,5.6027,8.908,2.6712,8.1606c-0.2918,0.7359-0.5017,1.5137-0.6164,2.323
	c3.7912,0.9401,6.5991,4.4815,6.5991,8.6072c0,0.791-0.1036,1.5639-0.3017,2.3128C9.0738,21.688,9.8354,21.8906,10.6269,22
	c0.2227-0.8542,0.3492-1.7326,0.3707-2.6268C10.9998,19.2796,11.001,19.1854,11.001,19.0909z M7.3349,7.9732
	c0.1887,0.092,0.3822,0.1793,0.5749,0.2594c0.3898,0.1623,0.793,0.3025,1.1983,0.4169c0.3078,0.0869,0.6231,0.1605,0.9368,0.219
	c0.1056,0.0197,0.2119,0.0379,0.3186,0.0544c0.2129,0.0331,0.4304,0.0599,0.6463,0.0799c0.6534,0.0607,1.3272,0.0607,1.9802,0.0001
	c0.2161-0.0201,0.4335-0.0469,0.6465-0.08c0.1068-0.0165,0.2131-0.0347,0.3187-0.0543c0.3137-0.0586,0.629-0.1322,0.9368-0.2191
	c0.4058-0.1146,0.8089-0.2548,1.1981-0.4168c0.1929-0.0803,0.3864-0.1675,0.575-0.2596c1.1911-0.5799,2.2701-1.3929,3.1883-2.3705
	c-0.4935-0.6244-1.0581-1.1881-1.6818-1.6796c-1.6081,1.7126-3.8224,2.7093-6.1716,2.7093c-2.3492,0-4.5635-0.9967-6.1717-2.7093
	C5.2048,4.4147,4.6401,4.9784,4.1466,5.6028C5.0649,6.5803,6.1439,7.3934,7.3349,7.9732z M16.1081,2.6668
	C15.4676,2.3763,14.7924,2.1503,14.0893,2c-0.6444,0.3488-1.3616,0.5377-2.1096,0.5377c-0.7436,0-1.4569-0.1868-2.0977-0.531
	C9.1892,2.157,8.5237,2.3803,7.892,2.6668c1.1301,1.0074,2.5816,1.5812,4.1081,1.5812C13.5265,4.248,14.978,3.6741,16.1081,2.6668z
	 M21.9453,10.4837c-0.1151-0.8115-0.3258-1.5914-0.6189-2.3292c-4.8248,1.2231-8.3273,5.7089-8.3273,10.9364
	c0,0.0946,0.0013,0.1887,0.0034,0.2826c0.0215,0.894,0.1481,1.7724,0.3708,2.6265c0.7914-0.1094,1.553-0.3119,2.2745-0.5963
	c-0.1981-0.749-0.3015-1.5219-0.3015-2.3128C15.3462,14.9652,18.1541,11.4239,21.9453,10.4837z M21.5379,15.137
	c0.2299-0.701,0.3882-1.4347,0.4621-2.194c-2.5203,0.8547-4.3375,3.3163-4.3375,6.1479c0,0.3938,0.0408,0.7803,0.1102,1.1602
	c0.5793-0.4119,1.114-0.8832,1.5943-1.4066C19.4629,17.3088,20.2922,15.9296,21.5379,15.137z"/>
</svg>
